<svg width="565" height="565" viewBox="0 0 565 565" fill="none" xmlns="http://www.w3.org/2000/svg">
    <g clip-path="url(#clip0)">
        <path fill-rule="evenodd" clip-rule="evenodd"
              d="M-156.991 -156.992C135.978 -157.004 428.938 -157.004 721.907 -156.984C721.907 135.977 721.931 428.938 721.899 721.906C428.938 721.918 135.978 721.918 -156.991 721.906C-157.003 428.938 -157.003 135.977 -156.991 -156.992ZM-127.8 -127.805C-127.812 145.707 -127.812 419.207 -127.8 692.719C145.708 692.727 419.208 692.727 692.72 692.719C692.728 419.207 692.728 145.707 692.72 -127.805C419.208 -127.812 145.708 -127.824 -127.8 -127.805ZM66.9893 66.9767C210.638 66.965 354.29 66.965 497.931 66.9767C497.938 104.988 497.938 142.988 497.931 180.996C445.11 181.016 392.29 180.988 339.478 181.008C339.47 237.828 339.478 294.637 339.478 351.445C339.317 362.317 339.778 373.238 339.247 384.067C301.388 422.078 263.349 459.918 225.478 497.926L225.399 496.875C225.501 459.125 225.407 421.375 225.45 383.637C225.438 316.098 225.45 248.547 225.438 181.008C172.618 180.988 119.81 181.016 66.9893 180.996C66.9893 142.988 66.9775 104.988 66.9893 66.9767Z"
              fill="black"/>
        <path fill-rule="evenodd" clip-rule="evenodd"
              d="M66.9893 383.906C109.54 383.817 152.099 384.035 194.649 383.797C205.388 421.348 214.638 459.328 225.399 496.875L225.478 497.926C172.649 497.918 119.829 497.938 67.001 497.918C66.9775 459.918 67.001 421.906 66.9893 383.906Z"
              fill="#E0A859"/>
        <path fill-rule="evenodd" clip-rule="evenodd"
              d="M194.649 383.797C204.907 383.418 215.181 383.715 225.45 383.637C225.407 421.375 225.501 459.125 225.399 496.875C214.638 459.328 205.388 421.348 194.649 383.797Z"
              fill="#BF9150"/>
    </g>
    <defs>
        <clipPath id="clip0">
            <rect width="565" height="565" fill="white"/>
        </clipPath>
    </defs>
</svg>
